name kv04_filtered_grf.mot
datacolumns 37
datarows 7
range 0.796500 0.799500
endheader
time	1_ground_force_vx	1_ground_force_vy	1_ground_force_vz	1_ground_force_px	1_ground_force_py	1_ground_force_pz	1_ground_torque_x	1_ground_torque_y	1_ground_torque_z	2_ground_force_vx	2_ground_force_vy	2_ground_force_vz	2_ground_force_px	2_ground_force_py	2_ground_force_pz	2_ground_torque_x	2_ground_torque_y	2_ground_torque_z	3_ground_force_vx	3_ground_force_vy	3_ground_force_vz	3_ground_force_px	3_ground_force_py	3_ground_force_pz	3_ground_torque_x	3_ground_torque_y	3_ground_torque_z	4_ground_force_vx	4_ground_force_vy	4_ground_force_vz	4_ground_force_px	4_ground_force_py	4_ground_force_pz	4_ground_torque_x	4_ground_torque_y	4_ground_torque_z
            0.796500	            0.000000	           -0.000005	            0.000048	            0.450000	            0.000000	            0.900000	           -0.000002	            0.000013	            0.000001	           -0.000008	           -0.000054	           -0.000039	           -0.226824	            0.000000	            0.174299	           -0.000011	            0.000000	           -0.000004	           -0.873030	            0.788503	           -0.300908	            0.386985	            0.970420	            1.075491	            0.002550	            0.005322	            0.013595	            0.233604	            0.465302	            0.168874	           -0.368793	            0.969468	            1.108177	           -0.000918	            0.004063	           -0.005415
            0.797000	            0.000000	            0.000008	            0.000056	            0.450000	            0.000000	            0.900000	            0.000006	            0.000015	           -0.000002	           -0.000008	           -0.000047	           -0.000034	           -0.226824	            0.000000	            0.174299	           -0.000010	            0.000000	           -0.000003	           -0.897993	            0.778736	           -0.307324	            0.386986	            0.970420	            1.075487	            0.002396	            0.005170	            0.013621	            0.276017	            0.465595	            0.177461	           -0.368802	            0.969465	            1.108171	           -0.000783	            0.003807	           -0.005016
            0.797500	            0.000000	            0.000021	            0.000065	            0.450000	            0.000000	            0.900000	            0.000016	            0.000018	           -0.000006	           -0.000009	           -0.000040	           -0.000029	           -0.226824	            0.000000	            0.174299	           -0.000008	            0.000000	           -0.000002	           -0.921138	            0.768317	           -0.313875	            0.386988	            0.970420	            1.075484	            0.002230	            0.005011	            0.013645	            0.317994	            0.465590	            0.186037	           -0.368810	            0.969462	            1.108165	           -0.000631	            0.003552	           -0.004616
            0.798000	            0.000000	            0.000035	            0.000073	            0.450000	            0.000000	            0.900000	            0.000025	            0.000021	           -0.000010	           -0.000009	           -0.000032	           -0.000023	           -0.226824	            0.000000	            0.174299	           -0.000006	            0.000000	           -0.000001	           -0.942436	            0.757255	           -0.320522	            0.386987	            0.970419	            1.075482	            0.002051	            0.004848	            0.013667	            0.359445	            0.465307	            0.194575	           -0.368819	            0.969459	            1.108159	           -0.000461	            0.003299	           -0.004217
            0.798500	            0.000000	            0.000049	            0.000082	            0.450000	            0.000000	            0.900000	            0.000035	            0.000023	           -0.000014	           -0.000010	           -0.000023	           -0.000017	           -0.226824	            0.000000	            0.174299	           -0.000005	            0.000000	           -0.000001	           -0.961871	            0.745550	           -0.327222	            0.386986	            0.970418	            1.075481	            0.001860	            0.004683	            0.013687	            0.400280	            0.464772	            0.203043	           -0.368827	            0.969457	            1.108153	           -0.000276	            0.003048	           -0.003820
            0.799000	            0.000000	            0.000064	            0.000091	            0.450000	            0.000000	            0.900000	            0.000046	            0.000026	           -0.000019	           -0.000010	           -0.000014	           -0.000010	           -0.226824	            0.000000	            0.174299	           -0.000003	            0.000000	            0.000000	           -0.979433	            0.733210	           -0.333931	            0.386984	            0.970417	            1.075479	            0.001657	            0.004518	            0.013705	            0.440413	            0.464007	            0.211411	           -0.368836	            0.969454	            1.108148	           -0.000076	            0.002800	           -0.003424
            0.799500	            0.000000	            0.000079	            0.000100	            0.450000	            0.000000	            0.900000	            0.000056	            0.000029	           -0.000023	           -0.000011	           -0.000004	           -0.000003	           -0.226824	            0.000000	            0.174299	           -0.000001	            0.000000	            0.000001	           -0.995117	            0.720245	           -0.340605	            0.386983	            0.970416	            1.075477	            0.001443	            0.004355	            0.013723	            0.479759	            0.463037	            0.219651	           -0.368845	            0.969452	            1.108142	            0.000138	            0.002556	           -0.003033
